<svg width="47" height="48" viewBox="0 0 47 48" fill="none" xmlns="http://www.w3.org/2000/svg">
  <path d="M3.91675 12.342L17.4547 20.0128C22.4457 22.8407 24.5544 22.8407 29.5455 20.0128L43.0834 12.342" stroke="#4081CB" stroke-width="2.9375" stroke-linejoin="round"/>
  <path d="M3.94763 26.9817C4.07565 32.9852 4.13967 35.9867 6.35479 38.2104C8.5699 40.4339 11.6528 40.5113 17.8186 40.6662C21.6187 40.7617 25.3815 40.7617 29.1816 40.6662C35.3474 40.5113 38.4302 40.4339 40.6455 38.2104C42.8606 35.9867 42.9246 32.9852 43.0525 26.9817C43.0938 25.0514 43.0938 23.1326 43.0525 21.2023C42.9246 15.1989 42.8606 12.1973 40.6455 9.97371C38.4302 7.75016 35.3474 7.67271 29.1816 7.51779C25.3815 7.4223 21.6187 7.4223 17.8186 7.51777C11.6528 7.67267 8.5699 7.75012 6.35478 9.97369C4.13965 12.1972 4.07565 15.1989 3.94761 21.2023C3.90645 23.1326 3.90647 25.0514 3.94763 26.9817Z" stroke="#4081CB" stroke-width="2.9375" stroke-linejoin="round"/>
</svg>
