<svg width="133" height="32" viewBox="0 0 133 32" fill="none" xmlns="http://www.w3.org/2000/svg">
  <path d="M17.2971 27.3964L0.173584 17.5567V13.3399L17.1928 3.4473L17.1292 7.82893L3.78688 15.5261L17.3159 23.0749L17.2971 27.3964Z" fill="#444444"/>
  <path d="M38.3374 2.9038V6.8872C38.3374 6.8872 34.0826 3.77598 28.9308 3.77598C23.3575 3.7708 17.1292 7.82679 17.1292 7.82679V3.45449C21.4371 1.1636 25.2591 0 28.9777 0C33.5204 0 38.3374 2.9038 38.3374 2.9038Z" fill="#4081CB"/>
  <path d="M29.0705 25.6747C30.4341 25.6747 31.7844 25.4077 33.0443 24.8888C34.3041 24.37 35.4489 23.6096 36.4131 22.6509C37.3773 21.6922 38.1422 20.5541 38.6641 19.3015C39.1859 18.0489 39.4545 16.7064 39.4545 15.3507C39.4545 13.9949 39.1859 12.6524 38.6641 11.3998C38.1422 10.1472 37.3773 9.00913 36.4131 8.05046C35.4489 7.09178 34.3041 6.33132 33.0443 5.81248C31.7844 5.29365 30.4341 5.02661 29.0705 5.02661C23.3209 5.02661 18.6593 9.64884 18.6593 15.3496C18.6609 16.7073 18.9315 18.0513 19.4557 19.3049C19.9798 20.5586 20.7471 21.6973 21.7139 22.6561C22.6807 23.6149 23.828 24.3749 25.0902 24.8929C26.3524 25.4108 27.7049 25.6765 29.0705 25.6747Z" fill="#4081CB"/>
  <path d="M40.8451 3.81857L57.9686 13.6583V17.8751L40.9494 27.7677L41.012 23.3861L54.3553 15.6889L40.8263 8.14005L40.8451 3.81857Z" fill="#444444"/>
  <path d="M19.7974 28.3401V24.3567C19.7974 24.3567 24.0532 27.4731 29.2051 27.4731C34.7783 27.4731 41.0056 23.4151 41.0056 23.4151V27.7894C36.6987 30.0803 32.8757 31.2439 29.1581 31.2439C24.6154 31.2439 19.7974 28.3401 19.7974 28.3401Z" fill="#4081CB"/>
  <path d="M65.1784 7.47827H69.8014L73.9091 19.3082L78.0398 7.47827H82.4521L76.0214 23.836H71.5622L65.1784 7.47827Z" fill="#444444"/>
  <path d="M92.5316 11.1454C91.5386 10.8191 90.7041 10.6556 90.0282 10.6549C89.4962 10.6549 89.079 10.752 88.7765 10.9463C88.6307 11.0349 88.5114 11.1606 88.4311 11.3106C88.3507 11.4605 88.3122 11.629 88.3196 11.7988C88.3163 11.9683 88.3503 12.1364 88.4191 12.2915C88.4879 12.4467 88.5899 12.585 88.7181 12.6969C89.0067 12.9513 89.3411 13.1491 89.7038 13.2797C90.0953 13.4277 90.6742 13.6185 91.4405 13.8522C92.404 14.1162 93.3486 14.4436 94.2684 14.8322C95.0219 15.1651 95.6796 15.6803 96.1814 16.3308C96.7134 17.0069 96.9794 17.8898 96.9794 18.9794C96.9794 20.0691 96.6901 20.9983 96.1115 21.7671C95.5323 22.538 94.7381 23.1174 93.7291 23.5052C92.6526 23.9061 91.5104 24.1041 90.3609 24.0891C88.9741 24.0837 87.5983 23.8432 86.2929 23.3777C85.0146 22.9445 83.826 22.2842 82.7849 21.429L84.4539 18.0927C85.3277 18.8512 86.3235 19.4583 87.3996 19.889C88.5331 20.3556 89.5383 20.589 90.4152 20.589C91.0563 20.589 91.5608 20.4721 91.9287 20.2385C92.1048 20.1324 92.2489 19.9812 92.346 19.8008C92.4431 19.6203 92.4895 19.4172 92.4805 19.2128C92.4844 19.0368 92.4497 18.8622 92.3787 18.701C92.3077 18.5398 92.2022 18.3959 92.0695 18.2794C91.7689 18.0142 91.4177 17.8118 91.0369 17.6841C90.6196 17.5355 90.0369 17.3606 89.2886 17.1594C88.3371 16.9081 87.4041 16.5921 86.4963 16.2136C85.7561 15.8909 85.107 15.3923 84.6062 14.7617C84.0825 14.1166 83.8207 13.2572 83.8207 12.1835C83.8015 11.2341 84.0848 10.303 84.6302 9.52342C85.1691 8.7629 85.934 8.17523 86.925 7.7604C87.9159 7.34557 89.0699 7.13815 90.387 7.13815C91.5785 7.13846 92.7639 7.30747 93.9075 7.6401C94.9841 7.93918 96.0117 8.39116 96.9585 8.98207L95.3386 12.3889C94.4502 11.8761 93.5092 11.4593 92.5316 11.1454Z" fill="#444444"/>
  <path d="M99.1667 7.47827H103.461V14.1529H110.104V7.47827H114.396V23.836H110.101V17.5586H103.459V23.836H99.1667V7.47827Z" fill="#444444"/>
  <path d="M128.827 7.47827H132.817V23.836H129.062L121.599 14.0585V23.836H117.586V7.47827H121.364L128.851 17.3305L128.827 7.47827Z" fill="#444444"/>
</svg>
